<svg id="Layer_1" data-name="Layer 1" xmlns="http://www.w3.org/2000/svg" viewBox="0 0 519 519"><defs><style>.cls-1{fill:none;stroke:#9f63df;stroke-miterlimit:10;stroke-width:2px;}.cls-2{fill:#a063e0;}.cls-3{fill:#9f63df;}</style></defs><polyline class="cls-1" points="228.51 150.77 228.51 199.85 204.84 199.85 204.84 178.61 185.01 178.61"/><polyline class="cls-1" points="328.36 162.74 287.68 162.74 287.68 178.61 333.91 178.61"/><polyline class="cls-1" points="262.34 187.48 313.02 187.48 313.02 201.91 267.59 201.91"/><path class="cls-2" d="M236.2,169.05c-14,9.94-21.8,10.48-26.41,8.89-1.25-.43-3.79-1.53-4.73-.55-1.56,1.63,1.19,7.83,5,11.67a21.37,21.37,0,0,0,12.79,5.84" transform="translate(-40.26 -21.19)"/><path class="cls-2" d="M218.81,194.1a83.8,83.8,0,0,0,17.94-3.65c30.48-9.78,53.51-36.74,50-42s-38.66,5.45-58.93,31.13c-4,5.08-7.78,6.59-11.68,10.84-5.32,5.82-8,8.8-8.06,12.51-.13,5.88,5.48,7.24,5.28,13.63-.14,4.68-3.34,9.51-6.39,9.72-2.68.19-4.68-3.24-5.28-2.78s.56,4,3.33,6.12a10.82,10.82,0,0,0,10.85.83,11.94,11.94,0,0,0,5-4.72C226.86,216.17,219.51,196,218.81,194.1Z" transform="translate(-40.26 -21.19)"/><path class="cls-2" d="M381.21,184.8c5.25,6.52,7.88,9.78,8.06,12.51.38,5.87-5.49,7.1-5.29,13.62.15,4.69,3.35,9.52,6.4,9.73,2.68.19,4.68-3.24,5.28-2.78s-.56,4-3.34,6.12c-3.09,2.35-7.95,3.05-10.84.83a8.06,8.06,0,0,1-2.67-5.19c-1.8-10-.62-26.29-.23-31.19-2.66-6.34-3.07-8.54-2.55-8.84C376.7,179.23,378.9,181.94,381.21,184.8Z" transform="translate(-40.26 -21.19)"/><path class="cls-2" d="M222.69,182.53h0A83.55,83.55,0,0,0,280.74,296.1v16h0l.58.82-18.67,13.1,4.1,6.82-11.15,6.56,42,106.93L280.56,314.94l1-.13.52-.85a33.95,33.95,0,0,0,35.38.13l.43.71,1.08.14-17.1,131.68,43-107.17-11.39-6.55,4.18-6.82L318.22,313l.56-.83v-16a83.53,83.53,0,0,0,64.5-81.33c0-37.14-15.45-66.62-19.58-72.63-4.6-6.69-12.23-17.8-26.87-26.19-5.77-3.31-19.11-11-36.69-10.56-18.6.41-18.36,9.28-50,17-8.74,2.11-17.58,3.57-23.35,11.12-3.4,4.44-3.64,8.09-7.79,9.73-5,2-8.19-2.07-11.67-.28-5.16,2.64-5.08,16.51.55,26.41C208.56,170.58,213.7,179.36,222.69,182.53Zm96.16-72.38c.4,8,3.2,28.45,20.33,44.55a65.91,65.91,0,0,0,35.76,16.92l-.27,2a67.91,67.91,0,0,1-36.86-17.44c-17.66-16.61-20.54-37.64-21-45.91ZM260.51,171a34.41,34.41,0,0,1,33.95,28.84h11.37a34.41,34.41,0,1,1-.45,5.56H294.91a34.4,34.4,0,1,1-34.4-34.4Z" transform="translate(-40.26 -21.19)"/><path class="cls-2" d="M298.58,438.19,298.07,321a36,36,0,0,1-15.27-4.27Z" transform="translate(-40.26 -21.19)"/><path class="cls-2" d="M374.08,317.2l-53.23-4.86,19.55,13.15-4.11,6.7,11.11,6.39-.32.81L300.69,454.92l0,0,.11,25.22h-2l-.11-25.68L253.12,338.59l10.88-6.4-4-6.69,18.76-13.17-53.31,4.87-24.72,20.23s15.17,119.1,15.52,142.69l83.53,21.35,83.52-21.35c.35-23.59,15.52-142.69,15.52-142.69Z" transform="translate(-40.26 -21.19)"/><path class="cls-2" d="M300.07,321l.52,119.9L316.7,316.81A36,36,0,0,1,300.07,321Z" transform="translate(-40.26 -21.19)"/><path class="cls-3" d="M299.76,21.19c-143.32,0-259.5,116.18-259.5,259.5s116.18,259.5,259.5,259.5S559.26,424,559.26,280.69,443.08,21.19,299.76,21.19Zm.31,464.25C187,485.44,95.32,393.77,95.32,280.69S187,75.94,300.07,75.94s204.75,91.67,204.75,204.75S413.15,485.44,300.07,485.44Z" transform="translate(-40.26 -21.19)"/></svg>